<svg width="24" height="18" viewBox="0 0 24 18" fill="none" xmlns="http://www.w3.org/2000/svg">
<mask id="mask0" mask-type="alpha" maskUnits="userSpaceOnUse" x="0" y="0" width="24" height="18">
<rect width="24" height="18" fill="white"/>
</mask>
<g mask="url(#mask0)">
<path fill-rule="evenodd" clip-rule="evenodd" d="M0 0H24V18H0V0Z" fill="#F7FCFF"/>
<path fill-rule="evenodd" clip-rule="evenodd" d="M0 11V12.5H24V11H0Z" fill="#E31D1C"/>
<path fill-rule="evenodd" clip-rule="evenodd" d="M0 13.75V15.25H24V13.75H0Z" fill="#E31D1C"/>
<path fill-rule="evenodd" clip-rule="evenodd" d="M0 5.5V7H24V5.5H0Z" fill="#E31D1C"/>
<path fill-rule="evenodd" clip-rule="evenodd" d="M0 16.5V18H24V16.5H0Z" fill="#E31D1C"/>
<path fill-rule="evenodd" clip-rule="evenodd" d="M0 8.25V9.75H24V8.25H0Z" fill="#E31D1C"/>
<path fill-rule="evenodd" clip-rule="evenodd" d="M0 0V1.5H24V0H0Z" fill="#E31D1C"/>
<path fill-rule="evenodd" clip-rule="evenodd" d="M0 2.75V4.25H24V2.75H0Z" fill="#E31D1C"/>
<rect width="15" height="9.75" fill="#2E42A5"/>
<path fill-rule="evenodd" clip-rule="evenodd" d="M4.29157 2.20391L3.74716 2.58557L3.93096 1.90637L3.44742 1.47593H4.07898L4.29081 0.921631L4.53918 1.47593H5.07758L4.65455 1.90637L4.81832 2.58557L4.29157 2.20391ZM1.29154 2.20403L0.747126 2.58569L0.930925 1.90649L0.447388 1.47605H1.07895L1.29078 0.921753L1.53915 1.47605H2.07755L1.65452 1.90649L1.81829 2.58569L1.29154 2.20403ZM6.74716 2.58557L7.29157 2.20391L7.81832 2.58557L7.65455 1.90637L8.07758 1.47593H7.53918L7.29081 0.921631L7.07898 1.47593H6.44742L6.93096 1.90637L6.74716 2.58557ZM10.2916 2.20391L9.74716 2.58557L9.93096 1.90637L9.44742 1.47593H10.079L10.2908 0.921631L10.5392 1.47593H11.0776L10.6545 1.90637L10.8183 2.58557L10.2916 2.20391ZM0.747157 5.58557L1.29157 5.20391L1.81832 5.58557L1.65455 4.90637L2.07758 4.47593H1.53918L1.29081 3.92163L1.07898 4.47593H0.447418L0.930956 4.90637L0.747157 5.58557ZM4.29157 5.20391L3.74716 5.58557L3.93096 4.90637L3.44742 4.47593H4.07898L4.29081 3.92163L4.53918 4.47593H5.07758L4.65455 4.90637L4.81832 5.58557L4.29157 5.20391ZM6.74716 5.58557L7.29157 5.20391L7.81832 5.58557L7.65455 4.90637L8.07758 4.47593H7.53918L7.29081 3.92163L7.07898 4.47593H6.44742L6.93096 4.90637L6.74716 5.58557ZM10.2916 5.20391L9.74716 5.58557L9.93096 4.90637L9.44742 4.47593H10.079L10.2908 3.92163L10.5392 4.47593H11.0776L10.6545 4.90637L10.8183 5.58557L10.2916 5.20391ZM0.747157 8.58557L1.29157 8.20391L1.81832 8.58557L1.65455 7.90637L2.07758 7.47593H1.53918L1.29081 6.92163L1.07898 7.47593H0.447418L0.930956 7.90637L0.747157 8.58557ZM4.29157 8.20391L3.74716 8.58557L3.93096 7.90637L3.44742 7.47593H4.07898L4.29081 6.92163L4.53918 7.47593H5.07758L4.65455 7.90637L4.81832 8.58557L4.29157 8.20391ZM6.74716 8.58557L7.29157 8.20391L7.81832 8.58557L7.65455 7.90637L8.07758 7.47593H7.53918L7.29081 6.92163L7.07898 7.47593H6.44742L6.93096 7.90637L6.74716 8.58557ZM10.2916 8.20391L9.74716 8.58557L9.93096 7.90637L9.44742 7.47593H10.079L10.2908 6.92163L10.5392 7.47593H11.0776L10.6545 7.90637L10.8183 8.58557L10.2916 8.20391ZM12.7472 2.58557L13.2917 2.20391L13.8184 2.58557L13.6546 1.90637L14.0777 1.47593H13.5393L13.2909 0.921631L13.0791 1.47593H12.4475L12.931 1.90637L12.7472 2.58557ZM13.2917 5.20391L12.7472 5.58557L12.931 4.90637L12.4475 4.47593H13.0791L13.2909 3.92163L13.5393 4.47593H14.0777L13.6546 4.90637L13.8184 5.58557L13.2917 5.20391ZM12.7472 8.58557L13.2917 8.20391L13.8184 8.58557L13.6546 7.90637L14.0777 7.47593H13.5393L13.2909 6.92163L13.0791 7.47593H12.4475L12.931 7.90637L12.7472 8.58557ZM2.79157 3.70391L2.24716 4.08557L2.43096 3.40637L1.94742 2.97593H2.57898L2.79081 2.42163L3.03918 2.97593H3.57758L3.15455 3.40637L3.31832 4.08557L2.79157 3.70391ZM5.24716 4.08557L5.79157 3.70391L6.31832 4.08557L6.15455 3.40637L6.57758 2.97593H6.03918L5.79081 2.42163L5.57898 2.97593H4.94742L5.43096 3.40637L5.24716 4.08557ZM8.79157 3.70391L8.24716 4.08557L8.43096 3.40637L7.94742 2.97593H8.57898L8.79081 2.42163L9.03918 2.97593H9.57758L9.15455 3.40637L9.31832 4.08557L8.79157 3.70391ZM2.24716 7.08557L2.79157 6.70391L3.31832 7.08557L3.15455 6.40637L3.57758 5.97593H3.03918L2.79081 5.42163L2.57898 5.97593H1.94742L2.43096 6.40637L2.24716 7.08557ZM5.79157 6.70391L5.24716 7.08557L5.43096 6.40637L4.94742 5.97593H5.57898L5.79081 5.42163L6.03918 5.97593H6.57758L6.15455 6.40637L6.31832 7.08557L5.79157 6.70391ZM8.24716 7.08557L8.79157 6.70391L9.31832 7.08557L9.15455 6.40637L9.57758 5.97593H9.03918L8.79081 5.42163L8.57898 5.97593H7.94742L8.43096 6.40637L8.24716 7.08557ZM11.7916 3.70391L11.2472 4.08557L11.431 3.40637L10.9474 2.97593H11.579L11.7908 2.42163L12.0392 2.97593H12.5776L12.1545 3.40637L12.3183 4.08557L11.7916 3.70391ZM11.2472 7.08557L11.7916 6.70391L12.3183 7.08557L12.1545 6.40637L12.5776 5.97593H12.0392L11.7908 5.42163L11.579 5.97593H10.9474L11.431 6.40637L11.2472 7.08557Z" fill="#F7FCFF"/>
</g>
<rect width="24" height="18" fill="url(#paint0_linear)" style="mix-blend-mode:overlay"/>
<path d="M0 0V-0.75H-0.75V0H0ZM24 0H24.75V-0.75H24V0ZM24 18V18.75H24.75V18H24ZM0 18H-0.75V18.75H0V18ZM0 0.75H24V-0.75H0V0.75ZM23.25 0V18H24.75V0H23.25ZM24 17.25H0V18.75H24V17.25ZM0.75 18V0H-0.75V18H0.75Z" fill="black" fill-opacity="0.1" style="mix-blend-mode:multiply"/>
<defs>
<linearGradient id="paint0_linear" x1="12" y1="0" x2="12" y2="18" gradientUnits="userSpaceOnUse">
<stop stop-color="white" stop-opacity="0.7"/>
<stop offset="1" stop-opacity="0.3"/>
</linearGradient>
</defs>
</svg>
